<?xml version="1.0" encoding="UTF-8"?>
<!DOCTYPE svg PUBLIC "-//W3C//DTD SVG 1.1//EN" "http://www.w3.org/Graphics/SVG/1.1/DTD/svg11.dtd">
<!-- Creator: CorelDRAW -->
<svg xmlns="http://www.w3.org/2000/svg" xml:space="preserve" width="7.11111in" height="7.11111in" version="1.1" style="shape-rendering:geometricPrecision; text-rendering:geometricPrecision; image-rendering:optimizeQuality; fill-rule:evenodd; clip-rule:evenodd"
viewBox="0 0 7111 7111"
 xmlns:xlink="http://www.w3.org/1999/xlink">
 <defs>
  <style type="text/css">
   <![CDATA[
    .fil0 {fill:url(#id0)}
   ]]>
  </style>
  <linearGradient id="id0" gradientUnits="userSpaceOnUse" x1="3555.56" y1="0.185039" x2="3555.56" y2="7110.71">
   <stop offset="0" style="stop-opacity:1; stop-color:#6666CC"/>
   <stop offset="0.509804" style="stop-opacity:1; stop-color:fuchsia"/>
   <stop offset="1" style="stop-opacity:1; stop-color:#FF6600"/>
  </linearGradient>
 </defs>
 <g id="Layer_x0020_1">
  <metadata id="CorelCorpID_0Corel-Layer"/>
  <path class="fil0" d="M3043 4631c-475,-158 -848,-557 -1049,-1122 -222,-621 -187,-1328 87,-1761 48,-77 169,-79 213,19 32,64 204,237 279,253 62,-104 228,-463 117,-1107 -13,-74 44,-141 119,-141 22,0 165,6 325,149 5,-401 70,-768 288,-903 88,-54 199,21 183,122 -55,341 41,421 253,596 86,70 183,151 284,262 359,394 515,838 579,1090 48,-68 92,-156 117,-225 37,-106 187,-108 227,-2 213,573 255,1096 123,1556 -116,401 -364,741 -718,982 -176,120 -335,201 -485,248 -356,111 -589,102 -942,-16zm3076 2480l-5127 0c-67,0 -121,-54 -121,-121l0 -1076c0,-659 573,-1196 1276,-1196l634 0c36,0 70,16 93,44l682 833 681 -833c23,-28 57,-44 94,-44l633 0c704,0 1276,537 1276,1196l0 1076c0,67 -54,121 -121,121zm-5006 -242l776 0 0 -598c0,-67 54,-121 121,-121 67,0 121,54 121,121l0 598 2849 0 0 -598c0,-67 54,-121 121,-121 67,0 121,54 121,121l0 598 776 0 0 -955c0,-526 -464,-955 -1034,-955l-576 0 -739 904c-48,59 -139,59 -187,0l-739 -904 -576 0c-570,0 -1034,429 -1034,955l0 955 0 0zm2815 -2457c182,-115 283,-257 309,-434 65,-437 -336,-997 -637,-1361 -94,445 -455,620 -701,894 -18,21 -312,364 -144,695 111,87 233,153 364,196 311,104 502,110 809,10zm-1462 -508c35,-306 240,-540 253,-554 80,-88 164,-162 245,-234 247,-219 441,-391 415,-796 -8,-114 136,-173 211,-87 385,442 1041,1230 866,1875 522,-428 688,-1100 471,-1891 -63,91 -146,175 -250,207 -71,21 -145,-27 -155,-101 0,-6 -84,-642 -558,-1162 -90,-99 -180,-173 -260,-239 -124,-102 -238,-197 -302,-343 -34,226 -33,511 -11,723 13,133 -171,185 -229,65 -70,-143 -143,-228 -205,-279 58,590 -103,935 -181,1065 -43,71 -112,110 -192,110 -133,0 -279,-115 -381,-226 -223,536 -111,1346 263,1867z"/>
 </g>
</svg>
